<svg xmlns="http://www.w3.org/2000/svg" width="23" height="22" viewBox="0 0 23 22" fill="none">
  <g clip-path="url(#clip0_724_4911)">
    <path d="M9.79698 10.818H4.45785C4.38264 10.818 4.31799 10.7533 4.31799 10.6781V3.55929C4.31799 3.48408 4.38264 3.41943 4.45785 3.41943H9.79698C9.87219 3.41943 9.93683 3.48408 9.93683 3.55929V10.6781C9.93683 10.7533 9.87219 10.818 9.79698 10.818ZM9.79698 17.9368H4.45785C4.38264 17.9368 4.31799 17.8722 4.31799 17.797V14.2375C4.31799 14.1623 4.38264 14.0977 4.45785 14.0977H9.79698C9.87218 14.0977 9.93683 14.1623 9.93683 14.2375V17.797C9.93683 17.8722 9.87219 17.9368 9.79698 17.9368ZM18.6955 17.9368H13.3564C13.2812 17.9368 13.2165 17.8722 13.2165 17.797V10.6781C13.2165 10.6029 13.2812 10.5383 13.3564 10.5383H18.6955C18.7707 10.5383 18.8354 10.6029 18.8354 10.6781V17.797C18.8354 17.8722 18.7707 17.9368 18.6955 17.9368ZM13.2165 7.11871V3.55929C13.2165 3.48408 13.2812 3.41943 13.3564 3.41943H18.6955C18.7707 3.41943 18.8354 3.48408 18.8354 3.55929V7.11871C18.8354 7.19392 18.7707 7.25856 18.6955 7.25856H13.3564C13.2812 7.25856 13.2165 7.19392 13.2165 7.11871Z" stroke="white" stroke-width="1.5"/>
  </g>
  <defs>
    <clipPath id="clip0_724_4911">
      <rect width="21.3565" height="21.3565" fill="white" transform="translate(0.898438)"/>
    </clipPath>
  </defs>
</svg>
