<svg xmlns="http://www.w3.org/2000/svg" width="17" height="17" viewBox="0 0 17 17" fill="none">
  <path fill-rule="evenodd" clip-rule="evenodd" d="M0 2.53571C0 1.86319 0.267154 1.21823 0.742691 0.742691C1.21823 0.267154 1.86319 0 2.53571 0H14.369C15.0415 0 15.6865 0.267154 16.162 0.742691C16.6376 1.21823 16.9047 1.86319 16.9047 2.53571V14.369C16.9047 15.0415 16.6376 15.6865 16.162 16.162C15.6865 16.6376 15.0415 16.9047 14.369 16.9047H2.53571C1.86319 16.9047 1.21823 16.6376 0.742691 16.162C0.267154 15.6865 0 15.0415 0 14.369V2.53571ZM2.53571 1.69047C2.31154 1.69047 2.09655 1.77952 1.93803 1.93803C1.77952 2.09655 1.69047 2.31154 1.69047 2.53571V6.76188H15.2142V2.53571C15.2142 2.31154 15.1252 2.09655 14.9667 1.93803C14.8082 1.77952 14.5932 1.69047 14.369 1.69047H2.53571ZM1.69047 8.45235V14.369C1.69047 14.5932 1.77952 14.8082 1.93803 14.9667C2.09655 15.1252 2.31154 15.2142 2.53571 15.2142H14.369C14.5932 15.2142 14.8082 15.1252 14.9667 14.9667C15.1252 14.8082 15.2142 14.5932 15.2142 14.369V8.45235H1.69047ZM7.60712 4.22618C7.60712 4.00201 7.69617 3.78702 7.85468 3.6285C8.01319 3.46999 8.22818 3.38094 8.45235 3.38094H12.6785C12.9027 3.38094 13.1177 3.46999 13.2762 3.6285C13.4347 3.78702 13.5238 4.00201 13.5238 4.22618C13.5238 4.45035 13.4347 4.66534 13.2762 4.82385C13.1177 4.98236 12.9027 5.07141 12.6785 5.07141H8.45235C8.22818 5.07141 8.01319 4.98236 7.85468 4.82385C7.69617 4.66534 7.60712 4.45035 7.60712 4.22618ZM4.22618 5.70534C4.61847 5.70534 4.99471 5.5495 5.2721 5.2721C5.5495 4.99471 5.70534 4.61847 5.70534 4.22618C5.70534 3.83388 5.5495 3.45765 5.2721 3.18025C4.99471 2.90285 4.61847 2.74701 4.22618 2.74701C3.83388 2.74701 3.45765 2.90285 3.18025 3.18025C2.90285 3.45765 2.74701 3.83388 2.74701 4.22618C2.74701 4.61847 2.90285 4.99471 3.18025 5.2721C3.45765 5.5495 3.83388 5.70534 4.22618 5.70534Z" fill="white"/>
  <path d="M4 13.5L7 11.5L8.5 13.5L12.6785 10" stroke="white" stroke-width="1.5" stroke-linecap="round"/>
</svg>
