<svg fill="none" xmlns="http://www.w3.org/2000/svg" viewBox="0 0 32 26">
  <path d="M16.1455 0c.2254.2379.2254.2379.4814.559.4044.494.8175.9577 1.264 1.4107l.2778.294c.5164.547 1.0328 1.0514 1.6131 1.5242.4989.4924.944 1.0182 1.3877 1.5636.2967.356.6152.6833.9396 1.0121l.3156.3334c.1731.1818.1731.1818.3477.3666.1091.1152.2167.2303.3287.347.3069.3212.3069.3212.6487.5667.1237.1015.1237.1015.2502.2045v.303c1.0822-.9394 2.064-1.9802 3.0545-3.0212.1702-.1772.3404-.3545.5091-.5333.4131-.4303.8248-.8621 1.2364-1.294.5047.2258.8276.5243 1.2116.9289l.352.3697c.1193.1287.24.256.3637.3863l.3709.391c.3011.3181.6022.6363.9018.9545-.2298.5788-.5818.9454-1.0051 1.3848-.0727.0743-.144.15-.2196.2273-.2386.2485-.4771.497-.7171.744-.1658.1711-.3317.3439-.4975.5166-.4363.453-.8727.9045-1.3105 1.3576-.4466.4606-.8917.9227-1.3367 1.3863-.8728.9061-1.747 1.8122-2.6226 2.7167-.5614-.2409-.9164-.6152-1.3425-1.0606-.0742-.0773-.1469-.1546-.224-.2333-.2429-.2531-.4844-.5076-.7273-.7622-.1687-.1757-.3375-.353-.5062-.5287-.4436-.4637-.8858-.9273-1.328-1.391a1283.201 1283.201 0 0 0-1.3571-1.4197 4559.8002 4559.8002 0 0 1-2.6603-2.7863c-.5615.2409-.9164.6151-1.3426 1.0606l-.224.2333c-.2429.253-.4844.5076-.7273.7621-.1687.1758-.3374.353-.5061.5288-.4437.4637-.8859.9273-1.328 1.3909-.4524.4743-.9048.947-1.3571 1.4197C9.7731 13.1424 8.8858 14.0712 8 15c-.5556-.2394-.9076-.6061-1.3294-1.047-.0713-.0757-.144-.15-.2182-.2288a162.556 162.556 0 0 1-.7142-.7469 152.6121 152.6121 0 0 0-.496-.5182c-.435-.4546-.8684-.9091-1.3033-1.3652A400.8997 400.8997 0 0 0 2.608 9.7015 1514.992 1514.992 0 0 1 0 6.9697c.2356-.5182.4975-.8576.8916-1.2621.1179-.1212.2342-.2424.355-.3667.1236-.1242.2458-.25.3709-.3788l.3752-.3863c.3055-.3137.611-.6273.9164-.9394.4102.1939.701.3924 1.0124.7287.1192.1288.1192.1288.2414.2591.0844.0925.1687.1834.256.2788l.5426.5788c.2836.3046.5672.6091.8509.9152.272.2954.5483.5894.8232.8818.0844.0924.1688.1864.256.2818.2618.2849.2618.2848.672.6212.5542-.0682.8015-.3273 1.1855-.7364.1135-.1196.2269-.2378.3433-.3605.1163-.1258.2327-.2516.3534-.3803.1164-.1228.2313-.2455.352-.3728.2182-.2318.4349-.4621.6517-.6954.3447-.3667.6923-.7288 1.0414-1.091l.4364-.4545L15.4182.4545l.2254-.253C15.8545 0 15.8545 0 16.1455 0Z" fill="url(#a)" />
  <path d="M16.1455 11c.2254.2379.2254.2379.4814.5591.4044.4939.8175.9576 1.264 1.4106l.2778.2939c.5164.547 1.0328 1.0516 1.6131 1.5243.4989.4924.944 1.0182 1.3877 1.5636.2967.3561.6152.6833.9396 1.0121l.3156.3334c.1731.1818.1731.1818.3477.3666.1091.1152.2167.2303.3287.347.3069.3212.3069.3212.6487.5667.1237.1015.1237.1015.2502.2045v.303c1.0822-.9393 2.064-1.9803 3.0545-3.0212.1702-.1772.3404-.3545.5091-.5333.4131-.4303.8248-.8621 1.2364-1.2939.5047.2257.8276.5242 1.2116.9288l.352.3696c.1193.1288.24.2561.3637.3864l.3709.3909c.3011.3182.6022.6364.9018.9546-.2298.5788-.5818.9454-1.0051 1.3848-.0727.0743-.144.15-.2196.2273-.2386.2485-.4771.497-.7171.7439-.1658.1712-.3317.344-.4975.5167-.4363.453-.8727.9045-1.3105 1.3576-.4466.4606-.8917.9227-1.3367 1.3863-.8728.9061-1.747 1.8122-2.6226 2.7167-.5614-.2409-.9164-.6152-1.3425-1.0606-.0742-.0773-.1469-.1546-.224-.2333-.2429-.2531-.4844-.5076-.7273-.7622-.1687-.1757-.3375-.353-.5062-.5287-.4436-.4637-.8858-.9273-1.328-1.391a1329.103 1329.103 0 0 0-1.3571-1.4197 4286.8677 4286.8677 0 0 1-2.6603-2.7863c-.5615.2409-.9164.6151-1.3426 1.0606l-.224.2333c-.2429.2531-.4844.5076-.7273.7621-.1687.1758-.3374.3531-.5061.5288-.4437.4637-.8859.9273-1.328 1.3909-.4524.4743-.9048.947-1.3571 1.4197C9.7731 24.1424 8.8858 25.0712 8 26c-.5556-.2394-.9076-.6061-1.3294-1.047-.0713-.0757-.144-.15-.2182-.2288a162.556 162.556 0 0 1-.7142-.7469 152.6121 152.6121 0 0 0-.496-.5182c-.435-.4546-.8684-.9091-1.3033-1.3652a402.7089 402.7089 0 0 0-1.3309-1.3924A1521.6743 1521.6743 0 0 1 0 17.9697c.2356-.5182.4975-.8576.8916-1.2621.1179-.1212.2342-.2424.355-.3667.1236-.1242.2458-.25.3709-.3788l.3752-.3863c.3055-.3137.611-.6273.9164-.9394.4102.1939.701.3924 1.0124.7288.1192.1287.1192.1287.2414.259.0844.0925.1687.1834.256.2788l.5426.5788c.2836.3046.5672.6091.8509.9152.272.2954.5483.5894.8232.8818.0844.0924.1688.1864.256.2818.2618.2849.2618.2849.672.6212.5542-.0682.8015-.3273 1.1855-.7363.1135-.1197.2269-.2379.3433-.3607.1163-.1257.2327-.2515.3534-.3803.1164-.1227.2313-.2454.352-.3727.2182-.2318.4349-.4621.6517-.6954.3447-.3667.6923-.7288 1.0414-1.0909l.4364-.4546 3.4909-3.6364.2254-.253C15.8545 11 15.8545 11 16.1455 11Z" fill="url(#b)" />
  <defs>
    <linearGradient
      id="a"
      x1="-5.5"
      y1="8"
      x2="53"
      y2="20"
      gradientUnits="userSpaceOnUse"
    >
      <stop stop-color="#9FD1FF" />
      <stop offset="1" stop-color="#2092FD" />
    </linearGradient>
    <linearGradient
      id="b"
      x1="-5.5"
      y1="19"
      x2="53"
      y2="31"
      gradientUnits="userSpaceOnUse"
    >
      <stop stop-color="#9FD1FF" />
      <stop offset="1" stop-color="#2092FD" />
    </linearGradient>
  </defs>
</svg>
