<svg fill="none" xmlns="http://www.w3.org/2000/svg" viewBox="0 0 60 31">
  <path d="M4.194 13h-.9c-.132 0-.216-.072-.252-.216L.576 1.642c-.036-.144.024-.216.18-.216h.594c.132 0 .21.072.234.216l2.142 10.332h.09l2.736-10.35c.024-.132.102-.198.234-.198h.684c.144 0 .228.066.252.198l2.754 10.35h.09L12.69 1.642c.024-.144.108-.216.252-.216h.612c.144 0 .198.072.162.216L11.25 12.784c-.024.144-.102.216-.234.216h-.918c-.132 0-.216-.072-.252-.216L7.182 2.632H7.11L4.428 12.784c-.036.144-.114.216-.234.216Zm17.549 0h-3.762c-.78 0-1.398-.228-1.854-.684-.444-.456-.666-1.08-.666-1.872V6.376c0-.792.222-1.416.666-1.872.456-.456 1.074-.684 1.854-.684h1.548c.78 0 1.398.228 1.854.684.456.456.684 1.08.684 1.872v2.286c0 .144-.072.216-.216.216h-5.328c-.108 0-.162.054-.162.162v1.386c0 .564.144 1.002.432 1.314.288.3.708.45 1.26.45h3.69c.132 0 .198.066.198.198v.414c0 .132-.066.198-.198.198Zm-5.22-4.842h4.482c.108 0 .162-.054.162-.162V6.394c0-.564-.144-.996-.432-1.296-.288-.312-.708-.468-1.26-.468h-1.422c-.552 0-.972.156-1.26.468-.288.3-.432.732-.432 1.296v1.602c0 .108.054.162.162.162ZM27.9924 13h-1.152c-.78 0-1.398-.228-1.854-.684-.444-.456-.666-1.08-.666-1.872V6.376c0-.792.222-1.416.666-1.872.456-.456 1.074-.684 1.854-.684h3.816c.12 0 .18.072.18.216v8.748c0 .144-.06.216-.18.216h-.522c-.132 0-.198-.072-.198-.216v-.72h-.072c-.312.624-.936.936-1.872.936Zm1.944-2.574V4.792c0-.108-.06-.162-.18-.162h-2.844c-.552 0-.972.156-1.26.468-.288.312-.432.75-.432 1.314v3.996c0 .564.144 1.002.432 1.314.288.312.708.468 1.26.468h1.17c.576 0 1.026-.15 1.35-.45.336-.312.504-.75.504-1.314ZM34.3275 13h-.522c-.12 0-.18-.072-.18-.216V.562c0-.144.06-.216.18-.216h.522c.132 0 .198.072.198.216v12.222c0 .144-.066.216-.198.216Zm3.3833-8.37h-1.098c-.132 0-.198-.06-.198-.18v-.432c0-.132.066-.198.198-.198h1.098c.108 0 .162-.054.162-.162V2.2c0-.144.066-.216.198-.216h.522c.132 0 .198.072.198.216v1.458c0 .108.054.162.162.162h2.142c.132 0 .198.066.198.198v.432c0 .12-.066.18-.198.18h-2.142c-.108 0-.162.054-.162.162v5.67c0 .552.156.978.468 1.278.312.3.75.45 1.314.45h.702c.132 0 .198.066.198.198v.414c0 .132-.066.198-.198.198h-.774c-.792 0-1.428-.222-1.908-.666-.48-.444-.72-1.056-.72-1.836V4.792c0-.108-.054-.162-.162-.162ZM44.2571 13h-.522c-.12 0-.18-.072-.18-.216V.562c0-.144.06-.216.18-.216h.522c.132 0 .198.072.198.216v4.194h.072c.336-.624.96-.936 1.872-.936h1.188c.768 0 1.374.228 1.818.684.444.456.666 1.08.666 1.872v6.408c0 .144-.06.216-.18.216h-.522c-.132 0-.198-.072-.198-.216V6.412c0-.564-.144-1.002-.432-1.314-.288-.312-.708-.468-1.26-.468h-1.17c-.576 0-1.032.156-1.368.468-.324.3-.486.732-.486 1.296v6.39c0 .144-.066.216-.198.216ZM6.027 31h-2.94c-.308 0-.483-.147-.525-.441L.315 17.938c-.042-.294.105-.441.441-.441H2.94c.322 0 .49.147.504.441l1.218 10.353h.147l2.016-10.416c.042-.252.189-.378.441-.378h2.352c.266 0 .42.119.462.357l2.058 10.437h.168l1.197-10.332c.014-.308.182-.462.504-.462h2.184c.336 0 .483.154.441.462l-2.268 12.6c-.042.294-.203.441-.483.441H10.92c-.294 0-.462-.147-.504-.441l-1.89-9.849h-.084l-1.911 9.849c-.056.294-.224.441-.504.441Zm12.1725-12.516v-1.827c0-.28.14-.42.42-.42h1.827c.28 0 .42.133.42.399v1.848c0 .28-.14.42-.42.42h-1.827c-.28 0-.42-.14-.42-.42Zm0 12.075v-9.828c0-.294.14-.441.42-.441h1.806c.294 0 .441.147.441.441v9.828c0 .182-.035.301-.105.357-.056.056-.161.084-.315.084h-1.806c-.294 0-.441-.147-.441-.441Zm4.5794 0v-.693c0-.476.133-.882.399-1.218l4.452-5.985v-.084h-4.221c-.294 0-.441-.154-.441-.462v-1.386c0-.294.147-.441.441-.441h6.846c.294 0 .441.147.441.441v1.26c0 .448-.112.812-.336 1.092l-4.116 5.544v.084h4.242c.294 0 .441.154.441.462v1.386c0 .294-.147.441-.441.441h-7.266c-.294 0-.441-.147-.441-.441ZM36.4755 31h-.504c-1.106 0-1.96-.294-2.562-.882-.602-.588-.903-1.435-.903-2.541v-3.864c0-1.106.301-1.953.903-2.541.602-.588 1.456-.882 2.562-.882h4.851c.308 0 .462.147.462.441v9.828c0 .294-.154.441-.462.441h-1.764c-.294 0-.441-.147-.441-.441v-.693h-.084c-.154.378-.427.665-.819.861-.392.182-.805.273-1.239.273Zm2.142-3.906v-4.263c0-.154-.084-.231-.252-.231h-1.974c-.448 0-.763.098-.945.294-.182.182-.273.497-.273.945v3.612c0 .448.091.77.273.966.182.182.497.273.945.273h.777c.966 0 1.449-.532 1.449-1.596ZM45.8117 31h-1.785c-.294 0-.441-.147-.441-.441v-9.828c0-.294.147-.441.441-.441h1.785c.294 0 .441.147.441.441v.714h.084c.154-.378.427-.665.819-.861.392-.196.805-.294 1.239-.294h.756c.28 0 .42.147.42.441v1.449c0 .168-.035.287-.105.357-.056.056-.161.077-.315.063h-1.449c-.966 0-1.449.546-1.449 1.638v6.321c0 .294-.147.441-.441.441Zm9.0223 0h-.861c-1.078 0-1.897-.294-2.457-.882-.546-.588-.819-1.435-.819-2.541v-3.864c0-1.106.273-1.953.819-2.541.56-.588 1.379-.882 2.457-.882h.861c.434 0 .847.098 1.239.294.392.182.665.462.819.84h.084v-4.746c0-.294.147-.441.441-.441h1.785c.294 0 .441.147.441.441v13.881c0 .294-.147.441-.441.441h-1.785c-.294 0-.441-.147-.441-.441v-.693h-.084c-.154.378-.427.665-.819.861-.392.182-.805.273-1.239.273Zm2.142-3.906v-2.898c0-1.064-.483-1.596-1.449-1.596h-.945c-.448 0-.763.098-.945.294-.182.182-.273.497-.273.945v3.612c0 .448.091.77.273.966.182.182.497.273.945.273h.945c.966 0 1.449-.532 1.449-1.596Z" fill="#fff" />
</svg>
